<svg display="none" xmlns="http://www.w3.org/2000/svg">
    <symbol id="jslogo" viewBox="0 0 32 32">
        <path
            d="M.774 22.15c0-.48.067-.885.2-1.213a2.17 2.17 0 0 1 .583-.813 2.31 2.31 0 0 1 .86-.445c.328-.092.68-.138 1.06-.138a3.62 3.62 0 0 1 1.013.138c.327.092.614.24.86.445s.44.476.583.813c.143.328.215.732.215 1.213 0 .46-.072.854-.215 1.182a2.27 2.27 0 0 1-.583.813c-.245.215-.532.368-.86.46a3.29 3.29 0 0 1-1.013.153c-.38 0-.732-.05-1.06-.153a2.19 2.19 0 0 1-.86-.46c-.246-.215-.44-.486-.583-.813-.133-.327-.2-.72-.2-1.182m8.656 9.746c-.5 0-.998-.036-1.52-.107s-.957-.164-1.304-.276V27.83c.317.102.614.174.9.215a5.27 5.27 0 0 0 .936.077c.256 0 .496-.04.72-.123a1.16 1.16 0 0 0 .6-.414c.174-.194.312-.46.414-.798.102-.327.153-.752.153-1.274V7.188h4.68v19.015c0 .788-.102 1.524-.307 2.2a4.43 4.43 0 0 1-.967 1.8c-.44.522-1.013.93-1.72 1.228s-1.565.445-2.578.445m.7-29.144c0-.44.067-.803.2-1.1s.312-.532.537-.706c.235-.184.506-.312.813-.384.317-.072.65-.107.998-.107a4.29 4.29 0 0 1 .982.107 1.94 1.94 0 0 1 .798.384 1.74 1.74 0 0 1 .552.706c.143.287.215.65.215 1.1 0 .43-.072.793-.215 1.1-.133.297-.317.537-.552.72a2.22 2.22 0 0 1-.798.384 4.29 4.29 0 0 1-.982.108c-.348 0-.68-.035-.998-.108a2.39 2.39 0 0 1-.813-.384c-.225-.184-.404-.425-.537-.72s-.2-.66-.2-1.1m21.12 16.518c0 .9-.164 1.688-.5 2.363a4.54 4.54 0 0 1-1.397 1.688c-.604.45-1.335.788-2.195 1.013s-1.82.338-2.885.338c-.563 0-1.085-.02-1.565-.06a11.14 11.14 0 0 1-1.366-.169c-.43-.082-.844-.184-1.243-.307a10.48 10.48 0 0 1-1.212-.46V19.79c.43.215.88.4 1.35.583l1.427.46 1.366.292a7.91 7.91 0 0 0 1.243.107c.42 0 .778-.035 1.074-.107.297-.082.537-.2.72-.322.194-.143.333-.307.414-.5a1.42 1.42 0 0 0 .138-.614c0-.215-.036-.404-.107-.568-.06-.174-.2-.353-.445-.537-.235-.194-.583-.4-1.044-.644l-1.826-.9-1.95-.998c-.542-.338-.992-.7-1.35-1.12a4.17 4.17 0 0 1-.783-1.397c-.174-.532-.26-1.16-.26-1.888 0-.798.153-1.494.46-2.087a4.1 4.1 0 0 1 1.304-1.504c.563-.4 1.238-.696 2.026-.9.798-.205 1.683-.307 2.655-.307 1.023 0 1.995.118 2.916.353s1.867.588 2.84 1.06l-1.412 3.315c-.778-.368-1.52-.67-2.225-.905a6.67 6.67 0 0 0-2.118-.353c-.634 0-1.095.113-1.38.338-.276.225-.414.532-.414.92 0 .205.036.4.107.553.072.154.215.317.43.5.215.164.517.348.905.552l1.52.72 1.964.95a6.68 6.68 0 0 1 1.504 1.059 4.13 4.13 0 0 1 .967 1.397c.225.532.338 1.177.338 1.934" />
    </symbol>
    <symbol id="html" viewBox="0 0 32 32">
        <polygon points="5.902 27.201 3.655 2 28.345 2 26.095 27.197 15.985 30 5.902 27.201" style="fill:#e44f26" />
        <polygon points="16 27.858 24.17 25.593 26.092 4.061 16 4.061 16 27.858" style="fill:#f1662a" />
        <polygon
            points="16 13.407 11.91 13.407 11.628 10.242 16 10.242 16 7.151 15.989 7.151 8.25 7.151 8.324 7.981 9.083 16.498 16 16.498 16 13.407"
            style="fill:#ebebeb" />
        <polygon
            points="16 21.434 15.986 21.438 12.544 20.509 12.324 18.044 10.651 18.044 9.221 18.044 9.654 22.896 15.986 24.654 16 24.65 16 21.434"
            style="fill:#ebebeb" />
        <polygon
            points="15.989 13.407 15.989 16.498 19.795 16.498 19.437 20.507 15.989 21.437 15.989 24.653 22.326 22.896 22.372 22.374 23.098 14.237 23.174 13.407 22.341 13.407 15.989 13.407"
            style="fill:#fff" />
        <polygon
            points="15.989 7.151 15.989 9.071 15.989 10.235 15.989 10.242 23.445 10.242 23.445 10.242 23.455 10.242 23.517 9.548 23.658 7.981 23.732 7.151 15.989 7.151"
            style="fill:#fff" />
    </symbol>
    <symbol id="jest" viewBox="0 0 32 32">
       <path d="M27.089,15.786a2.606,2.606,0,0,0-2.606-2.606,2.633,2.633,0,0,0-.274.014l3.58-10.558H12.576l3.575,10.549c-.052,0-.105-.005-.158-.005a2.606,2.606,0,0,0-.791,5.09,11.383,11.383,0,0,1-2.049,2.579A10.436,10.436,0,0,1,9.5,23.116a3.323,3.323,0,0,1-1.665-4.23c.077-.18.155-.362.229-.544a2.607,2.607,0,1,0-2.09-.4,20.134,20.134,0,0,0-1.889,4.787c-.354,2.135,0,4.4,1.845,5.681,4.3,2.981,8.969-1.848,13.891-3.061,1.784-.44,3.742-.369,5.313-1.279a4.45,4.45,0,0,0,2.179-3.088,4.639,4.639,0,0,0-.831-3.522,2.6,2.6,0,0,0,.606-1.671ZM18.6,15.8v-.009a2.6,2.6,0,0,0-1.256-2.23L20.188,7.8l2.85,5.814a2.6,2.6,0,0,0-1.161,2.169c0,.019,0,.038,0,.057L18.6,15.8Z" style="fill:#c63d14"/><path d="M27.726,15.786A3.247,3.247,0,0,0,25.083,12.6L28.677,2H11.689l3.6,10.621a3.241,3.241,0,0,0-1,5.918,10.865,10.865,0,0,1-1.568,1.846,9.827,9.827,0,0,1-3.16,2.03,2.656,2.656,0,0,1-1.134-3.28l.04-.093.074-.175a3.245,3.245,0,1,0-3.34-.754c-.108.231-.222.465-.339.706a14,14,0,0,0-1.4,3.8c-.465,2.8.285,5.043,2.111,6.308A5.751,5.751,0,0,0,8.934,30c2.132,0,4.289-1.071,6.4-2.119a23.672,23.672,0,0,1,4.642-1.918c.577-.142,1.171-.228,1.8-.319a9.977,9.977,0,0,0,3.68-1.028,5.09,5.09,0,0,0,2.487-3.53,5.255,5.255,0,0,0-.691-3.613,3.223,3.223,0,0,0,.475-1.688Zm-1.273,0a1.97,1.97,0,1,1-1.97-1.97,1.972,1.972,0,0,1,1.97,1.97ZM26.9,3.273l-3.174,9.36a3.2,3.2,0,0,0-.4.125l-3.135-6.4L17.046,12.72a3.2,3.2,0,0,0-.419-.114L13.464,3.273ZM15.993,13.816a1.97,1.97,0,1,1-1.97,1.97,1.972,1.972,0,0,1,1.97-1.97Zm-8.522.019A1.97,1.97,0,1,1,5.5,15.8a1.972,1.972,0,0,1,1.97-1.97Zm19.217,7.034a3.82,3.82,0,0,1-1.871,2.646,8.9,8.9,0,0,1-3.223.869c-.632.091-1.285.185-1.924.343a24.587,24.587,0,0,0-4.9,2.013c-3.164,1.571-5.9,2.928-8.472,1.143-1.887-1.308-1.8-3.728-1.58-5.054A12.82,12.82,0,0,1,6,19.376c.092-.189.182-.375.27-.559a3.215,3.215,0,0,0,.838.21,3.965,3.965,0,0,0,2.1,4.655l.245.126.259-.092a11.029,11.029,0,0,0,3.875-2.4,12.078,12.078,0,0,0,1.918-2.319,3.241,3.241,0,0,0,2.64-5.627l2.038-4.121,2.059,4.2a3.24,3.24,0,0,0,4.088,5,3.957,3.957,0,0,1,.355,2.422Z" style="fill:#fff"/>
    </symbol>
    <symbol id="ts" viewBox="0 0 512 512">
        <path
            d="M373.6465149,289.5476379H312.390686v189.7456665l-33.7347107-0.0000305v-189.745636h-61.1287994v-31.37677h156.119339V289.5476379z M507.3800964,398.535675c-21.3193054-42.9439697-71.9799805-45.6103516-86.7124634-72.728302c-16.2763367-43.9219055,50.8490906-51.8579102,83.0995178-22.2676086v-39.4264526c-13.7410278-8.8743286-35.590271-9.8278809-50.9179993-9.0001831c-40.4500732,2.1843262-67.6317749,25.6871338-67.2262573,60.6980591c-1.7426453,48.8711548,54.0643311,61.4549255,82.0871887,84.0719299c19.0316162,16.1492004,17.6693726,55.3132019-29.3473511,51.4010315c-15.0501709-1.3822937-34.3663025-4.2957764-53.0340576-24.6832886v41.9417114c34.2955017,22.29245,93.2791138,18.2008667,113.8417053-8.592804C511.3911438,444.0257263,516.4275513,422.6948853,507.3800964,398.535675z"
            style="fill: black" />
        <path
            d="M178.9164124,397.8771362l17.4700012,60.6674805h52.6664429V335.5990601c-24.9207764,8.6644287-53.5789795,7.3724976-79.5404053-7.5945435c-64.1425781-36.9789429-64.1425781-129.9281006-0.000061-166.9069824c58.3208008-33.6226196,130.2502441,1.7504272,142.8283081,64.0403442l62.4865112-0.000061c-2.4333496-20.2295532-8.6228027-38.9351196-17.7116089-55.640625l35.4249878-62.904541l-35.3077393-35.3077393l-62.3120728,35.6037598c-10.0150146-5.6047974-20.62323-10.1500854-31.6339722-13.5203247l-18.8426514-68.1796875h-50.0192871l-18.3114014,66.7798462c-11.7113647,3.2211914-23.3220825,7.8920898-34.6424561,14.1226807l-59.3444214-33.335144l-35.3077393,35.3078003L79.74823,166.9365234c-6.2023315,11.0975952-10.956665,22.8284912-14.2806396,34.8983765L0.7225952,220.852478v50.0193481l65.0929565,17.6815186c3.4159546,12.0096436,8.274292,23.6650391,14.5515137,34.6882935L48.289978,383.170105l35.3077393,35.3077393l59.3304443-34.659668C154.6939087,390.1408691,166.756073,394.7758179,178.9164124,397.8771362z"
            style="fill: black" />
    </symbol>
    <symbol id="react" viewBox="0 0 128 128">
        <g fill="#61DAFB">
            <circle cx="64" cy="64" r="11.4" />
            <path
                d="M107.3 45.2c-2.2-.8-4.5-1.6-6.9-2.3.6-2.4 1.1-4.8 1.5-7.1 2.1-13.2-.2-22.5-6.6-26.1-1.9-1.1-4-1.6-6.4-1.6-7 0-15.9 5.2-24.9 13.9-9-8.7-17.9-13.9-24.9-13.9-2.4 0-4.5.5-6.4 1.6-6.4 3.7-8.7 13-6.6 26.1.4 2.3.9 4.7 1.5 7.1-2.4.7-4.7 1.4-6.9 2.3-12.5 4.8-19.3 11.4-19.3 18.8s6.9 14 19.3 18.8c2.2.8 4.5 1.6 6.9 2.3-.6 2.4-1.1 4.8-1.5 7.1-2.1 13.2.2 22.5 6.6 26.1 1.9 1.1 4 1.6 6.4 1.6 7.1 0 16-5.2 24.9-13.9 9 8.7 17.9 13.9 24.9 13.9 2.4 0 4.5-.5 6.4-1.6 6.4-3.7 8.7-13 6.6-26.1-.4-2.3-.9-4.7-1.5-7.1 2.4-.7 4.7-1.4 6.9-2.3 12.5-4.8 19.3-11.4 19.3-18.8s-6.8-14-19.3-18.8zm-14.8-30.5c4.1 2.4 5.5 9.8 3.8 20.3-.3 2.1-.8 4.3-1.4 6.6-5.2-1.2-10.7-2-16.5-2.5-3.4-4.8-6.9-9.1-10.4-13 7.4-7.3 14.9-12.3 21-12.3 1.3 0 2.5.3 3.5.9zm-11.2 59.3c-1.8 3.2-3.9 6.4-6.1 9.6-3.7.3-7.4.4-11.2.4-3.9 0-7.6-.1-11.2-.4-2.2-3.2-4.2-6.4-6-9.6-1.9-3.3-3.7-6.7-5.3-10 1.6-3.3 3.4-6.7 5.3-10 1.8-3.2 3.9-6.4 6.1-9.6 3.7-.3 7.4-.4 11.2-.4 3.9 0 7.6.1 11.2.4 2.2 3.2 4.2 6.4 6 9.6 1.9 3.3 3.7 6.7 5.3 10-1.7 3.3-3.4 6.6-5.3 10zm8.3-3.3c1.5 3.5 2.7 6.9 3.8 10.3-3.4.8-7 1.4-10.8 1.9 1.2-1.9 2.5-3.9 3.6-6 1.2-2.1 2.3-4.2 3.4-6.2zm-25.6 27.1c-2.4-2.6-4.7-5.4-6.9-8.3 2.3.1 4.6.2 6.9.2 2.3 0 4.6-.1 6.9-.2-2.2 2.9-4.5 5.7-6.9 8.3zm-18.6-15c-3.8-.5-7.4-1.1-10.8-1.9 1.1-3.3 2.3-6.8 3.8-10.3 1.1 2 2.2 4.1 3.4 6.1 1.2 2.2 2.4 4.1 3.6 6.1zm-7-25.5c-1.5-3.5-2.7-6.9-3.8-10.3 3.4-.8 7-1.4 10.8-1.9-1.2 1.9-2.5 3.9-3.6 6-1.2 2.1-2.3 4.2-3.4 6.2zm25.6-27.1c2.4 2.6 4.7 5.4 6.9 8.3-2.3-.1-4.6-.2-6.9-.2-2.3 0-4.6.1-6.9.2 2.2-2.9 4.5-5.7 6.9-8.3zm22.2 21l-3.6-6c3.8.5 7.4 1.1 10.8 1.9-1.1 3.3-2.3 6.8-3.8 10.3-1.1-2.1-2.2-4.2-3.4-6.2zm-54.5-16.2c-1.7-10.5-.3-17.9 3.8-20.3 1-.6 2.2-.9 3.5-.9 6 0 13.5 4.9 21 12.3-3.5 3.8-7 8.2-10.4 13-5.8.5-11.3 1.4-16.5 2.5-.6-2.3-1-4.5-1.4-6.6zm-24.7 29c0-4.7 5.7-9.7 15.7-13.4 2-.8 4.2-1.5 6.4-2.1 1.6 5 3.6 10.3 6 15.6-2.4 5.3-4.5 10.5-6 15.5-13.8-4-22.1-10-22.1-15.6zm28.5 49.3c-4.1-2.4-5.5-9.8-3.8-20.3.3-2.1.8-4.3 1.4-6.6 5.2 1.2 10.7 2 16.5 2.5 3.4 4.8 6.9 9.1 10.4 13-7.4 7.3-14.9 12.3-21 12.3-1.3 0-2.5-.3-3.5-.9zm60.8-20.3c1.7 10.5.3 17.9-3.8 20.3-1 .6-2.2.9-3.5.9-6 0-13.5-4.9-21-12.3 3.5-3.8 7-8.2 10.4-13 5.8-.5 11.3-1.4 16.5-2.5.6 2.3 1 4.5 1.4 6.6zm9-15.6c-2 .8-4.2 1.5-6.4 2.1-1.6-5-3.6-10.3-6-15.6 2.4-5.3 4.5-10.5 6-15.5 13.8 4 22.1 10 22.1 15.6 0 4.7-5.8 9.7-15.7 13.4z" />
        </g>
    </symbol>
    <symbol id="git" viewBox="0 0 200 200">
        <g>
            <path
                d="M195.626,134.303c-0.267-0.037-0.533-0.073-0.8-0.108c0.146,2.545-0.441,5.101,0.352,8.203   c0.251-0.905,0.433-1.257,0.435-1.608C195.643,138.626,195.626,136.463,195.626,134.303z"
                fill="#181617" />
            <path
                d="M191.452,42.411c0.391-1.236,0.285-2.495-0.269-3.865c-0.244,1.217-0.508,2.433-0.713,3.657   c-0.027,0.165,0.226,0.507,0.389,0.536C191.041,42.771,191.399,42.579,191.452,42.411z"
                fill="#181617" />
            <path
                d="M5.024,59.124c-0.614,0.2-0.607,0.709-0.638,1.189c-0.032,0.478-0.008,0.961-0.008,1.441   c0.172,0.032,0.346,0.067,0.519,0.098c0.167-0.445,0.353-0.886,0.494-1.341C5.664,59.624,5.483,58.973,5.024,59.124z"
                fill="#181617" />
            <path d="M8.254,78.159c0.005-0.008,0.008-0.016,0.013-0.025c-0.012,0-0.024,0.002-0.037,0.002L8.254,78.159z"
                fill="#181617" />
            <path
                d="M35.685,17.75c0.435,0,0.468-0.4,0.477-0.741c-0.075-0.382-0.215-0.727-0.675-0.516   c-0.184,0.083-0.374,0.35-0.394,0.549C35.056,17.421,35.304,17.749,35.685,17.75z"
                fill="#181617" />
            <path
                d="M147.505,15.036c0.474,0.201,0.978,0.232,1.428-0.099c0.048-0.035,0.021-0.176,0.027-0.272   c-0.435-0.364-0.931-0.325-1.418-0.166C147.167,14.623,147.145,14.883,147.505,15.036z"
                fill="#181617" />
            <path
                d="M188.635,23.35c0.05,0.199,0.245,0.361,0.374,0.538c0.108-0.199,0.273-0.387,0.317-0.601   c0.066-0.339,0.053-0.696,0.076-1.048c0.535-0.918,0.894-1.889,0.892-2.968c0.226-0.07,0.46-0.126,0.681-0.216   c0.533-0.217,0.701-0.69,0.474-1.135c-0.11-0.221-0.603-0.331-0.927-0.339c-0.526-0.016-0.855,0.341-1.039,0.824l-0.064,0.058   c-0.321,0.144-0.595,0.352-0.829,0.614c-1.26,1.477-1.26,1.477-0.078,3.229C188.547,22.653,188.545,23.014,188.635,23.35z"
                fill="#181617" />
            <path
                d="M194.197,158.961c-0.021,0.087,0.046,0.228,0.117,0.299c0.036,0.034,0.174-0.034,0.264-0.058   c0.021-0.112,0.099-0.26,0.053-0.336C194.461,158.584,194.284,158.621,194.197,158.961z"
                fill="#181617" />
            <path
                d="M156.701,14.991c0.085,0.022,0.2-0.069,0.302-0.108c-0.021-0.09-0.015-0.222-0.069-0.26   c-0.085-0.058-0.246-0.102-0.319-0.058C156.343,14.733,156.375,14.909,156.701,14.991z"
                fill="#181617" />
            <path
                d="M168.962,15.821c0.204-0.044,0.397-0.151,0.595-0.232c-0.078-0.085-0.156-0.171-0.229-0.251   c-0.219,0.091-0.416,0.174-0.611,0.258C168.799,15.675,168.899,15.835,168.962,15.821z"
                fill="#181617" />
            <path
                d="M190.314,50.022c-0.066,0.311,0.056,0.476,0.297,0.411c0.066-0.018,0.09-0.192,0.133-0.294   c-0.06-0.094-0.117-0.188-0.177-0.285C190.48,49.91,190.331,49.953,190.314,50.022z"
                fill="#181617" />
            <path
                d="M8.254,78.16L8.23,78.136c-0.016,0.018-0.032,0.035-0.048,0.053C8.208,78.18,8.229,78.169,8.254,78.16z"
                fill="#181617" />
            <path
                d="M7.907,78.481C8,78.384,8.09,78.286,8.182,78.188c-0.076,0.021-0.155,0.039-0.214,0.084   C7.922,78.307,7.926,78.409,7.907,78.481z"
                fill="#181617" />
            <path
                d="M191.608,137.203c0.313-1.8,0.354-3.595-0.011-5.395c0.401-1.634,0.273-3.323-0.139-4.863   c-0.333-1.246-0.365-2.474-0.549-3.705c-0.003-0.524-0.005-1.049-0.007-1.57c0.032-0.655,0.058-1.306-0.761-1.54   c-1.338-1.314-0.798-2.388,0.365-3.473c0.391-0.365-0.032-0.94-0.686-0.901c-0.362,0.021-0.715,0.202-1.075,0.313   c-0.005,0.005-0.009,0.01-0.017,0.014c0.008-0.004,0.012-0.009,0.017-0.016c0.099-0.642-0.386-1.321,0.63-1.857   c1.156-0.604,1.262-1.7,0.275-2.163c-1.124-0.526-0.929-0.936-0.314-1.535c0.73-0.712,0.425-1.316-0.044-1.958   c-0.002,0-0.002,0.002-0.002,0.002c0.019-0.556,0.034-1.11,0.053-1.666c-0.007-1.016-0.012-2.032-0.014-3.048   c-0.003,0.002-0.003,0.005-0.005,0.005c0.002,0,0.002-0.003,0.002-0.005c-0.817-2.077-0.8-2.077-0.737-4.64   c0.044-1.786,0.053-3.575,0.037-5.361c-0.01-0.884,0.027-1.809-0.745-2.477c-0.156-3.8-0.846-7.566-0.747-11.381   c0.044-1.684-0.236-3.3-0.832-4.868c0.905-0.907,1.402-1.909,0.735-3.18c0.154-0.182,0.187-0.38,0.097-0.599   c0.689-1.117,0.768-2.207-0.138-3.255c0.243-1.066,0.489-2.135,0.733-3.203c0-0.001,0-0.001,0-0.001   c-0.014-1.557-0.032-3.113-0.046-4.669c0,0-0.003,0-0.003-0.001c0.023-1.769,0.046-3.536,0.069-5.305   c0.25-1.191-0.207-2.214-0.761-3.212c0,0,0,0,0-0.001c-0.007-1.04-0.012-2.08-0.019-3.122c0.184-1.618,0.211-3.241-0.294-4.801   c-0.412-1.269-0.159-2.449,0.221-3.645c0.206-1.506,0.039-3.048,0.763-4.508c0.379-0.766,0.338-1.76-0.016-2.623   c-0.069-0.174-0.37-0.345-0.568-0.35c-0.211-0.004-0.591,0.161-0.616,0.301c-0.184,1.036-0.299,2.083-0.45,3.234   c-0.779-0.746-0.287-1.924-1.243-2.386c0.044-0.501,0.087-1.002,0.131-1.501c-0.131,0.071-0.273,0.103-0.423,0.093   c0.002-0.104,0.007-0.208,0.012-0.312c0.138,0.071,0.273,0.144,0.411,0.217c0.929-2.005,0.596-4.127,0.572-6.22   c1.271-1.956,0.733-4.133,0.756-6.243c-0.26-1.341-1.896-0.369-2.39-1.47c-0.623-1.392-1.86-1.24-2.947-0.722   c-1.79,0.854-3.583,1.308-5.537,0.72c0,0,0,0,0,0.001c0-0.001,0-0.001-0.002-0.001c-0.402-0.58-0.896-0.944-1.618-0.58   c-1.151,0.581-2.294,1.186-3.438,1.783c-0.805,0.42-1.487,0.232-2.097-0.392h0.003c0.071-0.372,0.202-0.745,0.192-1.113   c-0.009-0.351-0.064-0.825-0.289-1.001c-0.168-0.132-0.781,0.008-0.952,0.219c-0.712,0.899-1.726,0.954-2.71,1.131   c-0.238-0.049-0.479-0.101-0.717-0.154c-0.818-0.9-1.91-0.776-2.896-0.604c-3.174,0.551-6.38,0.518-9.577,0.666   c-2.793,0.01-5.551-0.019-8.213-1.167c-1-0.429-2.241-0.305-3.372-0.43c-0.51-0.778-1.328-0.692-2.08-0.697   c-3.854-0.03-7.709-0.025-11.563-0.048c-5.02-0.028-10.04-0.14-15.058-0.064c-1.547,0.022-2.999-0.763-4.574-0.292   c-1.914,0.574-3.806,0.245-5.657-0.38l0.001,0.001c-0.001,0-0.001-0.001-0.002-0.001c-0.441-0.046-0.886-0.091-1.329-0.137   c-0.109-0.037-0.215-0.061-0.315-0.075c-2.888-0.754-5.836-0.424-8.762-0.415c-3.277,0.008-6.49,0.998-9.792,0.64   c-3.254-1.193-6.627-0.826-9.951-0.601c-3.988,0.269-7.968,0.501-11.968,0.496c-2.041-0.003-4.136-0.101-6.058,0.861   c-1.913-0.045-3.799-0.34-5.723,0.262c-3.659,1.144-7.156,2.889-11.094,3.056c-0.617,0.025-1.217,0.4-1.825,0.615   c-0.235-0.12-0.481-0.156-0.741-0.119c-0.898-0.994-0.358-2.506-1.197-3.52c-1.974,0.669-1.991,0.663-3.15,1.984   c-0.541,0.617-1.024,0.67-1.568,0.124c-0.913-0.914-2.159-0.646-3.242-0.947c-0.52-0.145-1.116,0.037-1.385,0.455   c-1.237,1.933-3.217,2.661-5.22,3.378l0.001,0.001c-0.001,0-0.001,0-0.001,0c-0.58,0.101-1.149,0.224-1.485,0.787l0.162,0.212   c-0.001,0-0.001,0-0.001,0c-0.001,0.002-0.002,0.003-0.003,0.005c-0.053-0.072-0.106-0.146-0.158-0.217   c-1.707,0.409-2.813,1.399-3.076,3.195c0,0.001,0,0.001,0,0.002c-1.424,1.002-2.72,2.102-3.004,3.967v0.001   c-0.042,0.216-0.041,0.432,0.005,0.648c-0.078,1.401-1.208,2.613-0.818,4.071c0.326,1.222-0.042,2.088-0.739,3.12   c-0.931,1.376-1.457,3.012-0.029,4.525h0.001c-0.004,0.265-0.008,0.53-0.01,0.794c0,0,0,0,0-0.001   c-0.254,0.273-0.507,0.545-0.76,0.816h0.001c0,0.001-0.001,0.001-0.001,0.001c-0.216,0.962-0.571,1.92-0.599,2.889   c-0.021,0.645,0.224,1.594,1.346,0.954c0.461-0.228,0.922-0.457,1.384-0.684v-0.001c0.089,1.278,0.183,2.555,0.272,3.832   c0.001-0.002,0.002-0.006,0.004-0.008c-0.002,0.003-0.002,0.006-0.003,0.009c-0.146,0.229-0.179,0.473-0.1,0.732   c-0.04,0.772-0.082,1.545-0.121,2.318c0,0,0.001,0.001,0.001,0.002c-0.001-0.001-0.001-0.001-0.001-0.001   c-0.939,0.568-1.543,1.23-1.116,2.478c0.134,0.393-0.204,0.947-0.325,1.426c-0.001,0-0.001,0-0.001,0   c-0.013,0.248-0.022,0.498-0.032,0.745c-0.001,0.001-0.002,0.003-0.002,0.004c-0.391,0.247-0.617,0.59-0.625,1.06c0,0,0,0,0,0.001   c0.016,0.186-0.022,0.363-0.117,0.524c-1.272,1.293-0.961,2.889-0.469,4.263c0.569,1.583,0.354,2.964-0.213,4.406   c-0.001,0-0.001,0-0.002,0c0.229,0.737,0.459,1.474,0.689,2.209c0.26,0.523,0.52,1.043,0.778,1.564   c-0.448,0.103-0.669,0.392-0.685,0.846c-0.214,0.56-0.436,1.115-0.637,1.679c-0.216,0.603-0.23,1.173,0.353,1.605   c0.34,0.19,0.732,0.236,1.083,0.396c0.007,0.003,0.014,0.005,0.021,0.008h0.001c0.201,0.054,0.4,0.111,0.599,0.172   c-0.237,0.498-0.476,0.995-0.712,1.491c0.999-0.003,2.005-0.759,2.997,0.031c0.137,0.254,0.108,0.489-0.086,0.704   c-3.397,0.834-3.854,1.814-2.196,4.731c0.402,1.855,0.67,3.781,0.309,5.608c-0.503,2.538-0.499,5.045-0.326,7.583   c-0.156,0.623-0.436,1.241-0.453,1.868c-0.217,7.876-0.75,15.747-0.479,23.635c0.334,9.695,1.147,19.344,2.593,28.938   c0,0,0,0.002,0.001,0.002c-0.001,0-0.001-0.002-0.002-0.002c0.16,4.697,0.678,9.354,1.527,13.977   c-0.262,1.905,0.576,3.634,0.87,5.45c-0.315,1.611,0.847,2.994,0.702,4.58c0.09,1.611,0.779,2.929,2.008,3.954   c0.17,0.143,0.508,0.239,0.689,0.165c0.169-0.068,0.292-0.384,0.333-0.608c0.176-0.934-0.355-1.72-0.562-2.577   c-0.215-0.887-0.269-1.783,0.617-2.413c0.716,0.99,0.475,2.408,1.466,3.275c-0.009,2.121,1.446,3.429,2.697,4.845   c0.283,0.317,0.655,0.389,1.015,0.17c0.638-0.388,1.483-0.491,1.816-1.305c0.787-0.226,1.779,0.478,2.397-0.524   c0.237-0.097,0.475-0.195,0.711-0.292c0.51,0.019,1.021,0.039,1.529,0.058h0.001c0.607,0.45,1.263,0.844,1.802,1.363   c0.389,0.374,0.746,0.749,1.269,0.462c1.729-0.952,3.489,0.192,5.219-0.136c0.001,0,0.001,0,0.002,0   c0.345,0.156,0.683,0.42,1.039,0.45c4.866,0.391,9.734,0.786,14.607,1.099c2.046,0.129,4.105,0.049,6.158,0.085   c3.973,0.066,7.945,0.163,11.905-0.289v0.002c2.584,0.016,5.205,0.311,7.742-0.027c2.163-0.285,4.319,0.133,6.479-0.409   c2.282-0.57,4.624,0.239,6.939,0.294c6.471,0.156,12.949,0.301,19.419,0.182c3.078-0.055,6.098-0.262,9.205,0.094   c5.88,0.669,11.838,0.48,17.725,1.271c1.661,0.223,3.357,0.145,4.872,1.066c0.458,0.278,1.002,0.037,1.467-0.218   c2.829,0.057,5.663-0.224,8.488,0.284c1.149,0.207,2.28-0.172,3.391-0.569c1.07-0.384,2.236-0.927,3.291-0.805   c0.949,0.112,1.363-0.158,1.929-0.724c0.593-0.596,1.732-0.694,1.639-1.893c0.469-0.537,0.938-1.073,1.409-1.608   c0.574,0.14,1.145,0.299,1.724,0.418c0.99,0.209,1.041,0.147,1.289-1.395h-0.002c0.326-0.504,0.581-1.083,0.997-1.497   c0.927-0.919,1.657-0.864,3.085,0.076c-0.048,0.384-0.147,0.771-0.136,1.151c0.053,1.681,0.285,1.766,1.781,1.336   c1.297-0.37,1.536-1.205,1.446-2.34c0.915-2.092,2.454-3.744,3.866-5.489c0.751-0.246,0.949-0.791,0.822-1.508   c0.331,0.191,0.72,0.319,0.979,0.579c3.107,3.107,3.68,2.487,6.293,0.224c0.188-0.161,0.497-0.193,0.667-0.368   c0.82-0.844,1.632-1.768,0.954-3.018c-0.594-1.097,0.181-1.975,0.241-2.956c0.121-0.212,0.179-0.437,0.172-0.681   c0.956-2.039,0.869-2.225-1.556-3.296c-0.11-0.977-0.141-1.942,0.255-2.875c0.72,0.143,1.441,0.282,2.158,0.42   c0.391-1.508-1.11-1.931-1.48-2.926c-0.45-1.211-0.184-2.51-0.131-3.774l0.003-0.002c0.33-0.646,0.985-0.618,1.567-0.8   c1.427-0.448,1.469-0.604,0.698-2.321c0.01-0.007,0.019-0.014,0.027-0.021v-0.003c-0.112-0.915-0.109-1.836,0.609-2.515   c1.129-1.066,0.159-2.785,1.248-3.858c0.064-0.063-0.168-0.426-0.262-0.648C191.707,140.317,191.657,138.762,191.608,137.203z    M190.133,148.877l-0.027-0.024c-0.002,0-0.002,0-0.002-0.003L190.133,148.877z"
                fill="#181617" />
        </g>
        <g>
            <path
                d="M121.153,71.572c0-4.522-3.625-8.18-8.095-8.18c-4.469,0-8.101,3.658-8.101,8.18   c0,4.509,3.632,8.18,8.101,8.18C117.528,79.752,121.153,76.081,121.153,71.572z"
                fill="#FFFFFF" />
            <path
                d="M94.657,93.849H68.15c-0.688,0-1.237,0.564-1.237,1.247v12.958c0,0.683,0.548,1.238,1.237,1.238h10.343   V125.4c0,0-2.319,0.791-8.744,0.791c-7.584,0-18.161-2.773-18.161-26.027c0-23.279,11.032-26.342,21.366-26.342   c8.955,0,12.81,1.583,15.27,2.334c0.768,0.235,1.474-0.532,1.474-1.214l2.962-12.527c0-0.314-0.11-0.706-0.471-0.972   c-0.995-0.706-7.083-4.105-22.44-4.105c-17.707,0-35.853,7.529-35.853,43.718c0,36.198,20.787,41.605,38.298,41.605   c14.51,0,23.301-6.207,23.301-6.207c0.36-0.195,0.407-0.704,0.407-0.939v-40.42C95.903,94.413,95.339,93.849,94.657,93.849z"
                fill="#FFFFFF" />
            <path
                d="M121.758,123.309c0-2.006,0-36.057,0-36.057c0-0.689-0.547-1.237-1.23-1.237H105.65   c-0.691,0-1.294,0.697-1.294,1.378c0,0,0,43.392,0,51.664c0,1.504,0.934,1.959,2.162,1.959c0,0,6.354,0,13.414,0   c1.457,0,1.825-0.72,1.825-1.99C121.758,136.268,121.758,125.408,121.758,123.309z"
                fill="#FFFFFF" />
            <path
                d="M164.663,86.007h-11.204l-0.008-14.8c0-0.558-0.297-0.847-0.941-0.847h-15.255   c-0.595,0-0.923,0.267-0.923,0.831v15.293c0,0-7.641,1.85-8.156,1.999c-0.51,0.148-0.902,0.619-0.902,1.191v9.605   c0,0.69,0.565,1.246,1.239,1.246h7.819c0,0,0,10.044,0,23.113c0,17.158,12.05,18.851,20.167,18.851   c3.712,0,8.147-1.189,8.899-1.473c0.432-0.156,0.697-0.619,0.697-1.112l0.008-10.569c0-0.697-0.578-1.246-1.235-1.246   c-0.652,0-2.322,0.267-4.044,0.267c-5.501,0-7.365-2.555-7.365-5.868c0-3.307,0-21.962,0-21.962h11.204   c0.681,0,1.238-0.556,1.238-1.246V87.244C165.901,86.547,165.344,86.007,164.663,86.007z"
                fill="#FFFFFF" />
        </g>
    </symbol>
    <symbol id="js" viewBox="0 0 32 32">
        <path
            d="M18.774,19.7a3.727,3.727,0,0,0,3.376,2.078c1.418,0,2.324-.709,2.324-1.688,0-1.173-.931-1.589-2.491-2.272l-.856-.367c-2.469-1.052-4.11-2.37-4.11-5.156,0-2.567,1.956-4.52,5.012-4.52A5.058,5.058,0,0,1,26.9,10.52l-2.665,1.711a2.327,2.327,0,0,0-2.2-1.467,1.489,1.489,0,0,0-1.638,1.467c0,1.027.636,1.442,2.1,2.078l.856.366c2.908,1.247,4.549,2.518,4.549,5.376,0,3.081-2.42,4.769-5.671,4.769a6.575,6.575,0,0,1-6.236-3.5ZM6.686,20c.538.954,1.027,1.76,2.2,1.76,1.124,0,1.834-.44,1.834-2.15V7.975h3.422V19.658c0,3.543-2.078,5.156-5.11,5.156A5.312,5.312,0,0,1,3.9,21.688Z"
            style="fill:#fbc02d" />
    </symbol>
    <symbol id="arrow" viewBox="0 0 533.333 533.333">
        <path d="M266.667,0L0,266.667h166.667v266.665l200,0.001V266.667h166.667L266.667,0z" />
    </symbol>
    <symbol id="webpack" viewBox="0 0 32 32">
     <path d="M29.54 24.663L16.57 32v-5.713l8.08-4.446zm.888-.803V8.52l-4.744 2.742v9.862zm-27.966.803L15.43 32v-5.713L7.345 21.84zm-.888-.803V8.52l4.744 2.742v9.862zM2.13 7.524L15.43 0v5.522L6.84 10.25zm27.74 0L16.57 0v5.522l8.59 4.723z" fill="#8ed6fb"/><path d="M15.43 25.237L7.456 20.85v-8.684l7.974 4.604zm1.14 0l7.975-4.383v-8.69L16.57 16.77zm-.57-8.8zm-8.004-5.275L16 6.763l8.004 4.4L16 15.783z" fill="#1c78c0"/>
    </symbol>
    <symbol id="mongo" viewBox="0 0 128 128">
     <path fill-rule="evenodd" clip-rule="evenodd" fill="#4FAA41" d="M82.803 34.23c-2.604-8.108-6.781-15.284-12.667-21.459-1.488-1.562-3.142-2.993-4.18-4.936-.656-1.23-1.281-2.477-1.92-3.715l-.406-1.021-.113.402c-.053 2.02-1.197 3.389-2.621 4.668-1.604 1.438-3.096 3-4.636 4.509l-4.736 6.229-3.829 7.042-2.561 6.915-.077.107c-1.409 4.629-2.104 9.389-2.445 14.195-.129 1.807.019 3.639.12 5.455.145 2.596.596 5.147 1.272 7.66 2.457 9.126 7.444 16.695 14.263 23.127 1.266 1.195 2.635 2.282 3.956 3.418l.585 2.008.544 3.116.26 3.253c-.003.66-.03 1.323.009 1.981.011.169.231.325.355.487l1.104.388 1.149.447-.197-2.891-.009-2.848.397-4.338.288-.944.825-1.461c1.018-.818 2.109-1.562 3.036-2.473 1.677-1.647 3.351-3.317 4.852-5.122 1.947-2.341 3.623-4.896 4.969-7.636.899-1.833 1.747-3.703 2.448-5.618.618-1.688 1.001-3.463 1.488-5.2l.128-.375c1.005-4.688 1.174-9.424.805-14.19-.297-3.841-1.2-7.548-2.456-11.18zm-19.9 50.275c.154-.771.345-1.538.484-2.312-.139.774-.329 1.541-.484 2.312zm3.417.532l-.646-1.415.646 1.415.949.811-.949-.811zM106.474 102.964c-.826-1.583-2.038-2.785-3.64-3.574-1.342-.66-2.785-.95-4.269-.992-1.112-.032-2.228.025-3.342.039-.989.012-1.979.029-2.968.02-1.163-.012-2.326-.047-3.489-.08-.193-.006-.33.033-.42.229-.141.305-.308.599-.481.933l.194.062c.577.102 1.157.189 1.731.304.738.147 1.07.571 1.104 1.193.05.886.07 1.774.067 2.662-.015 3.514-.04 7.028-.066 10.541-.002.232-.006.474-.069.692-.073.252-.152.578-.34.702-.325.216-.728.362-1.115.425-.561.092-.655.117-.83.669l-.076.276c-.084.301-.039.36.275.363 1.802.02 3.603.059 5.404.053 1.643-.006 3.286.094 4.923-.215 1.547-.291 2.991-.801 4.309-1.664 1.71-1.121 2.94-2.619 3.589-4.574.524-1.579.641-3.19.463-4.841-.121-1.139-.427-2.212-.954-3.223zm-3.157 9.661c-.964 1.794-2.402 2.992-4.457 3.308-1.287.197-2.576.14-3.803-.347-.777-.308-1.066-.979-1.09-1.772-.023-.777-.032-1.555-.033-2.332-.004-2.734-.004-5.468 0-8.201.002-.861.017-1.724.031-2.586.01-.606.137-.809.728-.858 2.596-.218 5.073.062 7.13 1.889 1.272 1.13 1.996 2.571 2.297 4.226.125.69.163 1.396.241 2.096-.063 1.598-.279 3.153-1.044 4.577zM125.106 109.664c-.512-1.246-1.482-2.027-2.701-2.527-.416-.171-.845-.312-1.294-.478l.157-.1c.485-.311 1.025-.562 1.443-.945 1.016-.931 1.438-2.102 1.24-3.493-.188-1.323-.848-2.294-2.027-2.924-1.07-.57-2.224-.778-3.418-.777-2.066.002-4.133.033-6.199.037-.712.001-1.424-.052-2.136-.062-.138-.002-.343.033-.402.125-.163.25-.271.538-.387.816-.067.162-.001.251.184.275.497.068.993.153 1.491.227.688.103 1.021.461 1.063 1.154l.009.411c.001 2.155.008 4.31-.001 6.465-.011 2.151-.035 4.304-.061 6.456-.003.271-.04.543-.079.812-.059.406-.276.686-.692.774l-1.177.232c-.139.028-.34.024-.397.11-.216.323-.39.676-.366 1.102l.121.033 3.953.097.793-.003c1.368-.016 2.738.011 4.104-.059 1.479-.074 2.868-.513 4.152-1.268 1.367-.805 2.419-1.866 2.793-3.462.24-1.019.241-2.044-.166-3.028zm-10.043-9.181c.006-.433.197-.621.627-.632 1.059-.029 2.111-.023 3.133.342 1.322.472 2.135 1.612 2.12 3.005-.007.535.001 1.065-.196 1.579-.389 1.012-1.135 1.546-2.193 1.65-.552.056-1.109.062-1.601.088l-1.642-.072c-.218-.008-.313-.104-.312-.328l.064-5.632zm6.806 13.494c-.529 1.151-1.493 1.756-2.7 1.966-.965.168-1.938.119-2.892-.127-.706-.181-.994-.748-1.135-1.377-.095-.421-.079-.922-.087-1.36-.013-.676-.003-2.079-.003-2.079h-.014c0-1 .003-1.866-.003-2.825-.001-.207.034-.31.287-.302.898.027 1.799.042 2.697.077.803.031 1.555.269 2.262.65 1.076.58 1.724 1.468 1.902 2.688.136.925.078 1.835-.314 2.689zM23.282 115.055l.019-5.437c.003-.818-.101-1.62-.369-2.396-.739-2.137-2.777-3.11-4.899-2.343-.965.349-1.83.878-2.656 1.478-.481.35-.481.35-.829-.149-.985-1.412-2.392-1.895-4.03-1.374-1.059.336-1.985.911-2.862 1.579-.082.062-.247.131-.296.094-.082-.061-.139-.206-.137-.315l.06-.966c.005-.203-.034-.407-.054-.62-.396.137-.712.274-1.043.354-1.023.25-2.053.48-3.082.715-.249.057-.512.132-.536.418-.025.281.246.328.456.412.442.178.881.367 1.318.559.367.162.504.455.502.849-.007 1.685.004 3.368-.006 5.053-.004.685-.036 1.369-.067 2.054-.028.607-.235.861-.823 1.014-.312.082-.629.137-.943.211-.069.016-.187.06-.188.094-.013.297-.029.601.021.89.01.052.324.052.498.072l.117-.007c1.212-.018 2.424-.037 3.637-.05.643-.007 1.285-.001 1.983-.001l.075-.97c-.4-.073-.757-.128-1.109-.205-.549-.12-.783-.411-.797-.965l-.01-.793c-.006-2.057-.014-4.113-.014-6.17 0-.299.124-.536.387-.715.557-.376 1.145-.675 1.796-.842 1.372-.351 2.562.137 3.09 1.304.167.368.298.775.335 1.175.194 2.062.11 4.126-.007 6.188-.025.445-.234.669-.673.778l-1.032.218c-.083.021-.204-.035-.21.034-.023.285-.01.722-.01.722h.246l3.142.103c.861-.002 1.723.102 2.583.124.154.003.291.026.3-.152.014-.282.002-.547-.011-.829l-.164-.029-.885-.199c-.597-.141-.803-.368-.805-.972-.007-1.489.013-2.977 0-4.465-.007-.851-.04-1.702-.095-2.551-.015-.226.02-.374.2-.501.53-.378 1.103-.669 1.732-.835 1.935-.51 3.519.551 3.619 2.546.098 1.924.057 3.855.042 5.783-.005.671-.227.874-.888 1.054l-.228.059c-.677.162-.671.162-.631.881.013.225.075.283.315.277 1.379-.031 2.758-.039 4.137-.051.564-.005 1.128 0 1.742 0l.125-.936c-.539-.143-1.036-.249-1.516-.406-.424-.144-.574-.4-.572-.848zM70.771 106.814c.568-.527.572-1.223.413-1.996-.45.471-.954.688-1.529.729-.771.055-1.528-.012-2.246-.319-1.942-.834-3.854-.775-5.76.14-1.603.768-2.589 1.965-2.688 3.78-.063 1.163.155 2.264.931 3.189.465.554 1.062.913 1.735 1.161.29.107.312.245.069.43-.178.137-.367.261-.557.38-.406.255-.815.507-1.226.754-.241.146-.323.332-.244.617.231.838.826 1.322 1.57 1.675l.271.189-.237.237c-.729.591-1.487 1.149-2.185 1.776-.586.527-.775 1.233-.598 2.012.357 1.555 1.388 2.517 2.851 2.959 2.557.774 4.958.33 7.147-1.185 1.298-.899 2.229-2.069 2.512-3.679.317-1.809-.688-3.379-2.487-3.703-1.19-.216-2.408-.278-3.612-.416-.562-.064-1.132-.102-1.679-.231-.465-.11-.696-.489-.653-.859.043-.364.43-.703.873-.738.892-.072 1.766-.211 2.588-.587 2.178-.996 3.189-2.74 2.936-5.088-.033-.316-.105-.628-.17-.996.697.117 1.41.294 1.975-.231zm-6.609 11.017c.886.026 1.894.081 2.868.366.857.25 1.562.688 1.77 1.645.251 1.156-.305 2.306-1.424 2.924-1.048.578-2.186.626-3.34.507-.988-.102-1.877-.444-2.589-1.174-.938-.961-.943-2.291-.004-3.249.839-.856 1.288-1.033 2.719-1.019zm2.217-6.962c-.516 1.651-2.018 1.879-3.195 1.351-1.003-.449-1.44-1.333-1.669-2.342-.089-.388-.11-.791-.162-1.188.021-.569.115-1.115.36-1.627.751-1.577 2.596-1.483 3.617-.769.438.306.743.722.934 1.215.424 1.104.467 2.229.115 3.36zM57.009 116.132c-.355-.057-.712-.131-1.057-.236-.608-.186-.682-.3-.689-.943-.018-1.792-.03-3.584-.05-5.375-.01-.806-.106-1.601-.353-2.371-.65-2.03-2.641-3.12-4.633-2.521-1.104.333-2.052.952-2.935 1.679l-.322.247.001-.331c.021-.381.062-.762.059-1.143-.002-.199-.078-.399-.115-.574-.753.227-1.428.455-2.117.629-.691.174-1.396.292-2.095.434-.347.07-.602.28-.596.519.009.337.288.402.532.503.442.181.883.364 1.32.558.312.139.439.397.436.732-.022 2.329-.036 4.659-.07 6.989-.01.736-.196.93-.92 1.092l-.316.063c-.67.115-.689.142-.643.849l.004.117c-.008.272.111.36.391.357 1.78-.021 3.561-.031 5.341-.024.763.003.845-.057.829-.841l-.036-.337c-.436-.073-.853-.126-1.261-.216-.427-.095-.58-.27-.62-.704-.037-.397-.049-.8-.053-1.2-.02-1.831-.036-3.662-.045-5.492-.002-.461.083-.889.507-1.186.643-.449 1.347-.709 2.125-.762 1.588-.109 2.795.832 2.881 2.415.106 1.953.074 3.913.099 5.87.002.146-.024.293-.044.438-.038.286-.178.501-.468.575-.283.074-.57.14-.859.184-.431.064-.44.061-.473.496l.011.293c.051.506.052.491.564.486 1.722-.014 3.443-.023 5.164-.021.72.002.771-.032.777-.774l-.002-.176c.011-.19-.074-.267-.269-.298zM81.061 104.809c-1.805-.441-3.517-.113-5.143.728-1.58.817-2.636 2.08-3.038 3.824-.406 1.763-.212 3.483.567 5.12.507 1.063 1.287 1.885 2.349 2.419 2.486 1.252 5.527.684 7.477-.991 1.539-1.321 2.104-3.08 2.138-5.257-.021-.218-.042-.638-.1-1.054-.327-2.37-1.968-4.231-4.25-4.789zm1.367 9.155c-.479 1.886-2.11 2.724-3.95 2.076-.939-.33-1.641-.961-2.113-1.814-1.086-1.96-1.295-4.044-.677-6.182.412-1.424 1.584-2.203 2.978-2.105 1.246.087 2.204.685 2.907 1.699.741 1.07 1.027 2.287 1.103 3.565.013.205.002.41.002.616l.088.01c-.11.713-.162 1.44-.338 2.135zM35.664 104.778c-1.899-.434-3.678-.005-5.326.96-1.425.834-2.346 2.08-2.699 3.708-.331 1.521-.196 3.016.343 4.473.328.888.825 1.669 1.554 2.278 1.535 1.281 3.329 1.605 5.238 1.248 1.616-.303 3.036-1.021 4.068-2.364.966-1.256 1.334-2.698 1.372-4.261-.057-.495-.071-.999-.176-1.482-.522-2.411-1.932-4.003-4.374-4.56zm1.549 9.18c-.463 1.876-2.12 2.735-3.947 2.087-1.173-.417-1.937-1.276-2.42-2.377-.774-1.769-.932-3.61-.431-5.476.384-1.427 1.541-2.478 3.312-2.226 1.087.154 1.935.709 2.567 1.592.854 1.191 1.135 2.555 1.174 3.988v.293l.072.011c-.105.704-.157 1.42-.327 2.108z"/>
    </symbol>
    <symbol id="lint" viewBox="0 0 64 64">
     <path d="M19.353 24.35l12.155-7.018a.98.98 0 0 1 .983 0l12.156 7.018c.304.176.492.5.492.852V39.24c0 .35-.188.676-.492.852L32.49 47.1a.98.98 0 0 1-.983 0L19.353 40.1c-.304-.176-.492-.5-.492-.852V25.203c0-.35.188-.676.492-.852" fill="#8080f2"/><path d="M63.604 30.744L49.08 5.478c-.527-.914-1.5-1.578-2.556-1.578H17.477c-1.055 0-2.03.674-2.557 1.587L.396 30.7a3 3 0 0 0 0 2.98L14.92 58.73c.528.914 1.502 1.38 2.557 1.38h29.047c1.055 0 2.03-.453 2.557-1.367l14.523-25.1a2.85 2.85 0 0 0 0-2.898m-12.026 12.15c0 .37-.224.715-.546.9l-18.5 10.673a1.05 1.05 0 0 1-1.047 0L12.972 43.795c-.322-.186-.547-.53-.547-.9V21.547a1.06 1.06 0 0 1 .544-.9l18.5-10.673a1.05 1.05 0 0 1 1.046 0L51.03 20.646c.322.186.55.53.55.9z" fill="#4b32c3"/>
    </symbol>
</svg>
